<svg viewBox="144.72 326.15999999999997 779.76 447.12" xmlns="http://www.w3.org/2000/svg" data-name="Layer 1" id="Layer_1" style="max-height: 500px" width="779.76" height="447.12">
  <defs>
    <style>
      .cls-1 {
        fill: #1c1e24;
      }

      .cls-2 {
        font-size: 85.67px;
      }

      .cls-2, .cls-3 {
        font-family: Mont-Regular, Mont;
      }

      .cls-4 {
        font-size: 109.68px;
      }

      .cls-4, .cls-5, .cls-3 {
        fill: #ff6300;
      }

      .cls-4, .cls-6 {
        font-family: Montserrat-Medium, Montserrat;
        font-weight: 500;
      }

      .cls-7 {
        font-family: Poppins-ExtraLightItalic, Poppins;
        font-size: 55.84px;
        font-style: italic;
        font-weight: 200;
      }

      .cls-8 {
        stroke: #fff;
        stroke-width: 2.35px;
      }

      .cls-8, .cls-9, .cls-10 {
        stroke-miterlimit: 10;
      }

      .cls-9 {
        stroke: #ff6300;
        stroke-width: 4px;
      }

      .cls-9, .cls-10 {
        fill: none;
      }

      .cls-3 {
        font-size: 119.51px;
      }

      .cls-6 {
        font-size: 85.67px;
      }

      .cls-10 {
        stroke: #000;
        stroke-width: 4.78px;
      }

      .cls-11 {
        letter-spacing: 0em;
      }
    </style>
  </defs>
  <text transform="translate(429.21 590.8)" class="cls-7"><tspan y="0" x="0">Presents</tspan></text>
  <text transform="translate(597.11 727.52)" class="cls-2"><tspan y="0" x="0" class="cls-11">p</tspan><tspan y="0" x="58.77">tics</tspan></text>
  <text transform="translate(388.83 725.06)" class="cls-6"><tspan y="0" x="0">igi</tspan></text>
  <text transform="translate(300.35 728.6)" class="cls-4"><tspan y="0" x="0">D</tspan></text>
  <path d="M365.75,682.66s-5.46-15.88-22.37-14.48" class="cls-10"/>
  <text transform="translate(501.75 731.53)" class="cls-3"><tspan y="0" x="0">O</tspan></text>
  <circle r="18.14" cy="689.41" cx="551.73"/>
  <circle r="7.6" cy="678.88" cx="562.27" class="cls-8"/>
  <g data-name="Layer_1" id="Layer_1-2">
    <path d="M343.63,497.03v-146.93h40.03c14.5,0,26.86,2.24,37.09,6.71,10.23,4.47,18.46,10.36,24.69,17.68,6.23,7.32,10.8,15.41,13.72,24.28,2.91,8.87,4.37,17.71,4.37,26.52,0,11.11-1.93,21.07-5.79,29.87-3.86,8.81-9.18,16.33-15.95,22.56-6.77,6.23-14.53,11.01-23.27,14.33-8.74,3.32-17.98,4.98-27.74,4.98h-47.15ZM363.34,478.13h23.57c8.13,0,15.61-1.22,22.46-3.66,6.84-2.44,12.8-5.96,17.88-10.57,5.08-4.61,9.04-10.26,11.89-16.97,2.84-6.71,4.27-14.33,4.27-22.86,0-9.08-1.49-17.04-4.47-23.88s-7.04-12.57-12.19-17.17c-5.15-4.61-10.97-8.09-17.48-10.47-6.5-2.37-13.34-3.56-20.53-3.56h-25.4v109.13Z" class="cls-1"/>
    <polygon points="496.86 350.3 516.37 350.1 516.16 497.03 496.66 497.03 496.86 350.3" class="cls-1" data-name="1" id="_1"/>
    <path d="M673.66,484.43c-2.03,1.76-4.88,3.49-8.53,5.18-3.66,1.69-7.69,3.22-12.09,4.57-4.4,1.36-8.94,2.44-13.62,3.25-4.67.81-9.04,1.22-13.11,1.22-11.79,0-22.39-1.83-31.8-5.49-9.42-3.66-17.48-8.74-24.18-15.24-6.71-6.5-11.85-14.16-15.44-22.96-3.59-8.81-5.39-18.36-5.39-28.65,0-12.19,2-23.13,5.99-32.82,4-9.69,9.48-17.88,16.46-24.59,6.98-6.71,15-11.79,24.08-15.24,9.08-3.45,18.7-5.18,28.86-5.18,8.53,0,16.46,1.02,23.78,3.05,7.32,2.03,13.75,4.61,19.31,7.72l-6.71,18.09c-2.71-1.63-6.06-3.12-10.06-4.47-4-1.36-8.09-2.47-12.29-3.35-4.2-.88-8.13-1.32-11.79-1.32-8.67,0-16.53,1.32-23.57,3.96-7.05,2.64-13.07,6.43-18.09,11.38-5.01,4.94-8.87,10.91-11.58,17.88-2.71,6.98-4.06,14.8-4.06,23.47,0,7.99,1.36,15.31,4.06,21.95,2.71,6.64,6.57,12.36,11.58,17.17,5.01,4.81,11.01,8.53,17.98,11.18,6.98,2.64,14.67,3.96,23.07,3.96,5.01,0,9.96-.51,14.83-1.52,4.88-1.02,9.08-2.47,12.6-4.37v-29.26h-29.26v-18.9h48.98v59.34Z" class="cls-1" data-name="2" id="_2"/>
    <polygon points="711.46 350.3 730.97 350.1 730.76 497.03 711.25 497.03 711.46 350.3" class="cls-1" data-name="3" id="_3"/>
    <path d="M756.32,349.77c3.36,0,6.03.68,8.01,2.04,1.98,1.36,2.98,3.38,2.98,6.06,0,1.98-.49,3.64-1.47,4.97-.98,1.33-2.31,2.32-3.98,2.98-1.68.66-3.6.98-5.76.98l-1.01-3.41c2.66,0,5.01.36,7.07,1.09,2.06.73,3.68,1.77,4.88,3.13,1.2,1.36,1.79,2.98,1.79,4.88,0,1.75-.31,3.23-.94,4.44s-1.47,2.19-2.54,2.93c-1.07.74-2.27,1.28-3.61,1.62-1.34.34-2.73.5-4.16.5h-10.72v-32.22h9.45ZM757.06,362.94c1.25,0,2.18-.38,2.78-1.14s.9-1.62.9-2.58c0-1.11-.37-1.94-1.12-2.49-.74-.55-1.74-.83-3-.83h-3.41v7.05h3.85ZM757.28,376.08c.93,0,1.78-.12,2.54-.37.76-.25,1.36-.64,1.79-1.18.44-.54.66-1.22.66-2.04,0-.93-.26-1.64-.79-2.12-.53-.48-1.2-.82-2.04-1.01-.83-.19-1.7-.28-2.6-.28h-3.63v7h4.07Z" class="cls-5"/>
    <polygon points="781.79 371.96 769.93 349.77 777.76 349.77 786.08 366.49 784.2 366.62 792.38 349.77 800.22 349.77 788.14 371.96 788.14 381.98 781.79 381.98 781.79 371.96" class="cls-5" data-name="1 0" id="_1_0"/>
    <path d="M764.06,397.32c-1.23-.67-2.47-1.23-3.74-1.66-1.27-.44-2.46-.66-3.57-.66-1.37,0-2.45.28-3.24.83-.79.55-1.18,1.39-1.18,2.5,0,.76.3,1.44.9,2.04s1.37,1.13,2.32,1.6c.95.47,1.93.89,2.95,1.27.93.35,1.86.77,2.78,1.25.92.48,1.74,1.08,2.47,1.79.73.71,1.31,1.6,1.75,2.67.44,1.07.66,2.37.66,3.92,0,1.63-.42,3.15-1.27,4.55-.85,1.4-2.09,2.53-3.72,3.39-1.63.86-3.65,1.29-6.04,1.29-1.23,0-2.47-.12-3.74-.37-1.27-.25-2.52-.63-3.74-1.14-1.23-.51-2.41-1.16-3.55-1.95l2.8-4.95c.76.55,1.58,1.04,2.47,1.47.89.42,1.79.75,2.69.98.9.23,1.74.35,2.5.35s1.52-.11,2.3-.33,1.42-.59,1.93-1.12.77-1.25.77-2.19c0-.64-.21-1.23-.63-1.75s-.99-1.01-1.71-1.44-1.5-.82-2.34-1.14c-.99-.38-2.01-.82-3.06-1.31-1.05-.5-2.04-1.1-2.95-1.82-.92-.71-1.66-1.6-2.23-2.67s-.85-2.37-.85-3.92c0-1.87.42-3.49,1.25-4.86.83-1.37,2.01-2.46,3.52-3.26,1.52-.8,3.27-1.25,5.25-1.34,2.6,0,4.71.31,6.32.92s3.07,1.34,4.35,2.19l-2.41,4.86Z" class="cls-5" data-name="2 1" id="_2_1"/>
    <path d="M782.14,389.53c2.01,0,3.81.26,5.38.77s2.9,1.24,3.96,2.19c1.06.95,1.87,2.09,2.43,3.41.55,1.33.83,2.82.83,4.49,0,1.31-.2,2.63-.59,3.94-.39,1.31-1.04,2.51-1.93,3.59-.89,1.08-2.06,1.95-3.52,2.6-1.46.66-3.27.99-5.43.99h-4.55v10.24h-6.35v-32.22h9.76ZM783.24,405.37c.96,0,1.77-.16,2.41-.48.64-.32,1.15-.73,1.51-1.23.37-.5.63-1.01.79-1.55.16-.54.24-1.04.24-1.51,0-.35-.05-.79-.15-1.34-.1-.54-.31-1.09-.63-1.64-.32-.55-.81-1.02-1.47-1.4-.66-.38-1.54-.57-2.65-.57h-4.55v9.72h4.51ZM789.19,409.31l7.97,12.43h-7.4l-8.14-12.26,7.57-.18Z" class="cls-5" data-name="3 2" id="_3_2"/>
  </g>
  <path d="M162.56,573.66h245.54-245.54Z" class="cls-9"/>
  <path d="M666.52,573.66h245.54-245.54Z" class="cls-9"/>
</svg>